<mxfile host="app.diagrams.net" modified="2023-06-14T02:10:52.908Z" agent="Mozilla/5.0 (Windows NT 10.0; Win64; x64) AppleWebKit/537.36 (KHTML, like Gecko) Chrome/114.0.0.0 Safari/537.36" etag="o91rUr3VldcadGivRGVS" version="21.3.8" type="github">
  <diagram name="第 1 页" id="9CLzAiqfRPKBdI6wICIr">
    <mxGraphModel dx="1195" dy="630" grid="1" gridSize="10" guides="1" tooltips="1" connect="1" arrows="1" fold="1" page="1" pageScale="1" pageWidth="1169" pageHeight="827" math="0" shadow="0">
      <root>
        <mxCell id="0" />
        <mxCell id="1" parent="0" />
        <mxCell id="YTY8GHkGcG89uvbtQ9Bl-10" value="" style="shape=mxgraph.cisco.routers.router;html=1;pointerEvents=1;dashed=0;fillColor=#036897;strokeColor=#ffffff;strokeWidth=2;verticalLabelPosition=bottom;verticalAlign=top;align=center;outlineConnect=0;" vertex="1" parent="1">
          <mxGeometry x="430" y="240" width="60" height="40" as="geometry" />
        </mxCell>
        <mxCell id="YTY8GHkGcG89uvbtQ9Bl-12" value="" style="shape=mxgraph.cisco.misc.acs;html=1;pointerEvents=1;dashed=0;fillColor=#036897;strokeColor=#ffffff;strokeWidth=2;verticalLabelPosition=bottom;verticalAlign=top;align=center;outlineConnect=0;" vertex="1" parent="1">
          <mxGeometry x="360" y="323.5" width="57.5" height="40" as="geometry" />
        </mxCell>
        <mxCell id="YTY8GHkGcG89uvbtQ9Bl-19" value="" style="shape=mxgraph.cisco.security.firewall;html=1;pointerEvents=1;dashed=0;fillColor=#036897;strokeColor=#ffffff;strokeWidth=2;verticalLabelPosition=bottom;verticalAlign=top;align=center;outlineConnect=0;" vertex="1" parent="1">
          <mxGeometry x="530" y="310" width="29" height="67" as="geometry" />
        </mxCell>
        <mxCell id="YTY8GHkGcG89uvbtQ9Bl-26" value="&lt;span style=&quot;color: rgb(34, 34, 34); font-family: Arial, sans-serif; font-size: 15px; text-align: start; background-color: rgb(255, 255, 255);&quot;&gt;Internet&lt;/span&gt;" style="ellipse;shape=cloud;whiteSpace=wrap;html=1;shadow=0;sketch=1;fontSize=15;strokeColor=#6c8ebf;fillColor=#dae8fc;" vertex="1" parent="1">
          <mxGeometry x="406.75" y="90" width="106.5" height="58.5" as="geometry" />
        </mxCell>
        <mxCell id="YTY8GHkGcG89uvbtQ9Bl-60" value="" style="rounded=1;whiteSpace=wrap;html=1;sketch=1;fillColor=#d5e8d4;strokeColor=#82b366;shadow=0;" vertex="1" parent="1">
          <mxGeometry x="790" y="440" width="280" height="280" as="geometry" />
        </mxCell>
        <mxCell id="YTY8GHkGcG89uvbtQ9Bl-61" value="内网业务区" style="text;html=1;strokeColor=none;fillColor=none;align=center;verticalAlign=middle;whiteSpace=wrap;rounded=0;sketch=1;fontColor=#000000;fontSize=14;fontStyle=1" vertex="1" parent="1">
          <mxGeometry x="960" y="450" width="85" height="30" as="geometry" />
        </mxCell>
        <mxCell id="YTY8GHkGcG89uvbtQ9Bl-62" value="" style="endArrow=none;html=1;rounded=0;entryX=0.211;entryY=0.086;entryDx=0;entryDy=0;strokeWidth=2;entryPerimeter=0;" edge="1" parent="1">
          <mxGeometry width="50" height="50" relative="1" as="geometry">
            <mxPoint x="841" y="700" as="sourcePoint" />
            <mxPoint x="841.1799999999998" y="469.4999999999999" as="targetPoint" />
          </mxGeometry>
        </mxCell>
        <mxCell id="YTY8GHkGcG89uvbtQ9Bl-63" value="" style="endArrow=none;html=1;rounded=0;" edge="1" parent="1">
          <mxGeometry width="50" height="50" relative="1" as="geometry">
            <mxPoint x="842" y="485.9" as="sourcePoint" />
            <mxPoint x="889" y="485.9" as="targetPoint" />
          </mxGeometry>
        </mxCell>
        <mxCell id="YTY8GHkGcG89uvbtQ9Bl-64" value="" style="endArrow=none;html=1;rounded=0;" edge="1" parent="1">
          <mxGeometry width="50" height="50" relative="1" as="geometry">
            <mxPoint x="842" y="574.7400000000001" as="sourcePoint" />
            <mxPoint x="889" y="574.7400000000001" as="targetPoint" />
          </mxGeometry>
        </mxCell>
        <mxCell id="YTY8GHkGcG89uvbtQ9Bl-65" value="" style="endArrow=none;html=1;rounded=0;" edge="1" parent="1">
          <mxGeometry width="50" height="50" relative="1" as="geometry">
            <mxPoint x="842" y="657.9" as="sourcePoint" />
            <mxPoint x="889" y="657.9" as="targetPoint" />
          </mxGeometry>
        </mxCell>
        <mxCell id="YTY8GHkGcG89uvbtQ9Bl-67" value="应用服务器" style="shape=mxgraph.cisco.computers_and_peripherals.ibm_mainframe;sketch=0;html=1;pointerEvents=1;dashed=0;fillColor=#036897;strokeColor=#ffffff;strokeWidth=2;verticalLabelPosition=bottom;verticalAlign=top;align=center;outlineConnect=0;shadow=0;fontSize=12;" vertex="1" parent="1">
          <mxGeometry x="893" y="454.75" width="35.71" height="50" as="geometry" />
        </mxCell>
        <mxCell id="YTY8GHkGcG89uvbtQ9Bl-68" value="设备网关服务器" style="shape=mxgraph.cisco.computers_and_peripherals.ibm_mainframe;sketch=0;html=1;pointerEvents=1;dashed=0;fillColor=#036897;strokeColor=#ffffff;strokeWidth=2;verticalLabelPosition=bottom;verticalAlign=top;align=center;outlineConnect=0;shadow=0;fontSize=12;" vertex="1" parent="1">
          <mxGeometry x="893" y="544.5" width="35.71" height="50" as="geometry" />
        </mxCell>
        <mxCell id="YTY8GHkGcG89uvbtQ9Bl-69" value="数据库服务器" style="shape=mxgraph.cisco.computers_and_peripherals.ibm_mainframe;sketch=0;html=1;pointerEvents=1;dashed=0;fillColor=#036897;strokeColor=#ffffff;strokeWidth=2;verticalLabelPosition=bottom;verticalAlign=top;align=center;outlineConnect=0;shadow=0;fontSize=12;" vertex="1" parent="1">
          <mxGeometry x="893" y="631.5" width="35.71" height="50" as="geometry" />
        </mxCell>
      </root>
    </mxGraphModel>
  </diagram>
</mxfile>
